<?xml version="1.0" encoding="UTF-8" standalone="no"?>
<svg
   xmlns:dc="http://purl.org/dc/elements/1.1/"
   xmlns:cc="http://creativecommons.org/ns#"
   xmlns:rdf="http://www.w3.org/1999/02/22-rdf-syntax-ns#"
   xmlns:svg="http://www.w3.org/2000/svg"
   xmlns="http://www.w3.org/2000/svg"
   xmlns:sodipodi="http://sodipodi.sourceforge.net/DTD/sodipodi-0.dtd"
   xmlns:inkscape="http://www.inkscape.org/namespaces/inkscape"
   width="50"
   height="50"
   viewBox="0 0 13.229166 13.229167"
   version="1.1"
   id="svg8"
   inkscape:version="1.0.1 (3bc2e813f5, 2020-09-07)"
   sodipodi:docname="ico-flask.svg">
  <defs
     id="defs2" />
  <sodipodi:namedview
     id="base"
     pagecolor="#ffffff"
     bordercolor="#666666"
     borderopacity="1.0"
     inkscape:pageopacity="0.0"
     inkscape:pageshadow="2"
     inkscape:zoom="5.6"
     inkscape:cx="29.681174"
     inkscape:cy="17.318702"
     inkscape:document-units="mm"
     inkscape:current-layer="layer1"
     inkscape:document-rotation="0"
     showgrid="false"
     inkscape:window-width="1366"
     inkscape:window-height="745"
     inkscape:window-x="-8"
     inkscape:window-y="-8"
     inkscape:window-maximized="1"
     units="px" />
  <metadata
     id="metadata5">
    <rdf:RDF>
      <cc:Work
         rdf:about="">
        <dc:format>image/svg+xml</dc:format>
        <dc:type
           rdf:resource="http://purl.org/dc/dcmitype/StillImage" />
        <dc:title />
      </cc:Work>
    </rdf:RDF>
  </metadata>
  <g
     inkscape:label="Capa 1"
     inkscape:groupmode="layer"
     id="layer1">
    <path
       d="M 4.3019644,10.658332 C 3.8545473,10.306266 3.3777913,9.9696033 3.0521304,9.4950473 2.3663353,8.6577903 1.8382365,7.688876 1.4773689,6.6700853 1.2591614,6.0077613 1.1839806,5.2973949 0.90306133,4.6603756 0.60893963,4.1982891 0.95367083,3.6921944 1.4604991,3.5455003 1.6860413,3.5022253 2.0824822,3.2887855 1.6035258,3.4413474 1.1744455,3.7560063 1.1330044,3.1552939 1.5730867,3.1171534 1.8738096,3.0768125 1.9838302,2.8310999 1.8811444,2.6103252 1.5584173,2.3998191 2.6630241,2.1691425 2.1070533,1.8548504 1.5283449,1.2314003 2.9168049,1.1111112 2.5742741,1.8203771 c -0.081415,0.5449687 0.9703817,-0.1004855 0.726136,0.5295658 0.2482798,0.3025566 0.9293073,0.068946 0.9120708,0.493259 0.361601,0.024938 0.4855575,0.3289615 0.8251545,0.3520659 0.3520659,0.1587964 0.9890851,0.2838531 1.1086408,0.6802941 -0.3483985,0.2761517 -1.1563165,-0.5702735 -1.1955571,0.1943697 0.1056198,1.1295448 0.078481,2.2928293 0.4914253,3.368464 0.1954699,0.6509552 0.669292,1.1636517 1.0965386,1.6708457 0.4096434,0.49656 0.964514,0.846426 1.5292866,1.1405467 0.495826,0.233978 1.0305257,0.38874 1.5707267,0.486291 0.218942,-0.167598 0.6062137,-0.7906807 0.9476447,-0.528099 0.0165,0.295589 -0.6784597,0.617583 -0.03301,0.584943 0.379572,-0.114421 0.64252,0.293389 0.954612,-0.07481 0.287888,0.341064 1.195557,-0.217474 0.991286,0.478957 -0.276885,0.1786 -0.680661,0.07078 -0.957913,0.316492 -0.457319,-0.228476 -0.821487,0.204272 -1.327582,0.149628 C 9.6515293,11.764039 9.0797883,11.804379 8.5098817,11.805113 7.5747069,11.731766 6.6200948,11.700227 5.7307617,11.374566 5.2294344,11.228971 4.7405763,10.943652 4.3004939,10.657965 Z m 0.7895812,0.342164 c 0.4892249,0.21124 0.9681813,0.434214 1.5036148,0.501694 0.850826,0.118088 1.729157,0.300722 2.5829169,0.134225 -0.386539,-0.174566 -0.7859137,0.06784 -1.1709858,-0.12469 -0.4620865,0.09902 -0.9535119,-0.02567 -1.4302678,-0.08692 -0.5335999,-0.237644 -1.1097412,-0.401208 -1.6092347,-0.709999 -0.6245502,-0.228109 0.3227271,0.292655 0.4914254,0.334829 0.3902064,0.221509 -0.4290803,-0.11002 -0.5449687,-0.205371 -0.327128,-0.183368 -0.368569,-0.145227 -0.032273,0.04108 l 0.2053721,0.115153 z M 4.1600378,10.342573 c 0.4741888,0.176033 -0.0022,-0.33373 -0.218941,-0.304391 C 3.8450122,9.8713173 3.5732613,9.7656983 3.7650639,9.6762153 3.4203327,9.7957703 3.4041963,9.2214633 3.242466,9.3036113 2.8779311,9.1884563 3.1005394,8.7806473 2.6666916,8.5298002 2.6270842,8.2657507 2.2354108,8.0372746 2.1107208,7.6393668 2.0557105,7.4354619 1.6680712,6.8508858 1.9060825,7.395121 c 0.2024379,0.5244315 0.5589046,0.9729486 0.8559602,1.4210993 0.2303098,0.42688 0.5024274,0.872831 0.9219727,1.139447 0.1415598,0.1356917 0.2779853,0.3436307 0.4774894,0.3861717 z M 2.7943155,8.8426253 c 0.016503,-0.07151 0.08655,0.154762 0,0 z m 1.9337954,1.7100867 c 0.1048863,-0.04694 -0.151095,-0.05941 0,0 z m 0.2567147,0.09388 c -0.026772,-0.129457 -0.1173553,0.07261 0,0 z m 0.3227271,0.134225 c 0.1532953,-0.145961 -0.2365443,-0.09168 0,0 z m 0.5523034,0.308058 c 0.093151,-0.137526 -0.2981559,-0.05134 0,0 z M 4.799991,10.349907 c 0.2383779,-0.154028 -0.3080577,-0.0022 0,0 z m 0.2420453,0.121023 c -0.00733,-0.08141 -0.086183,0.03668 0,0 z m 1.2076594,0.754008 c 0.1943697,0.122489 1.1339457,0.26845 0.5457022,0.05024 -0.099018,0.02053 -1.0910376,-0.280919 -0.5457022,-0.05024 z M 4.3324035,9.7315923 c -0.018337,-0.08142 -0.3014565,-0.09022 0,0 z m 0.5622052,0.3278607 c 0.1466941,-0.1026857 -0.3036568,-0.07885 0,0 z m 0.4767559,0.293388 c 0.2101393,-0.07921 -0.3403303,-0.07958 0,0 z M 4.1028271,9.4818443 c 0.2273759,0.174567 0.9190388,0.02201 0.3483986,-0.104152 -0.2592819,-0.13826 -0.8434913,-0.232877 -0.4452167,0.08325 l 0.096451,0.0209 z m 1.5842966,0.9670817 c 0.095351,-0.161363 -0.3982745,-0.09242 0,0 z M 5.2056003,10.066421 c 0.5574376,0.157696 -0.468321,-0.3520657 -0.1375258,-0.05868 l 0.073347,0.03301 0.064179,0.02494 z m 0.9652474,0.557437 c 0.5280988,0.0051 -0.476756,-0.07335 0,0 z M 3.8996557,9.1763543 c -0.020537,-0.09828 -0.130191,0.0081 0,0 z m 3.1638257,1.9480977 c 0.013936,-0.1775 -0.1723656,0.132025 0,0 z M 4.8007245,9.7271913 c -0.031906,-0.09352 -0.1650309,-0.0037 0,0 z m -0.850826,-0.612448 c 0.3029234,-0.01834 -0.414411,-0.133492 0,0 z M 2.9424765,8.4641545 c -0.037774,-0.1452272 -0.3293283,-0.2611156 0,0 z m 2.6448952,1.6785475 c -0.05501,-0.06345 -0.025672,0.01357 0,0 z m 1.6459082,1.010356 c -0.00514,-0.09682 -0.089483,0.03668 0,0 z M 5.4417778,9.9923403 c 0.029339,-0.124689 -0.2585484,-0.03777 0,0 z M 4.2154149,9.2148613 c 0.2255422,-0.02384 -0.3612344,-0.152195 0,0 z m 2.074255,1.2890747 c 0.3513324,-0.139359 -0.342164,-0.06785 0,0 z M 5.2107345,9.7715663 c 0.4045091,0.05208 -0.4815234,-0.275052 -0.089117,-0.02934 z m 1.40643,0.8647617 c 0.3777375,-0.225542 0.2530474,0.529199 0.6410534,0.06381 0.382505,-0.279452 -0.3300618,0.345465 0.1408263,0.04988 0.3410642,-0.228109 0.8445912,0.108187 1.1625511,0.217474 0.228843,-0.011 0.451084,0.198037 0.685795,0.07078 C 9.6984753,10.916519 8.3642915,10.857841 8.7141573,10.642201 8.3012134,10.762484 7.9960894,10.499169 7.792551,10.234385 7.3289978,10.127299 6.7935643,9.8903883 6.5621542,9.4803783 6.4679033,9.3263493 6.6978463,9.5023823 6.480739,9.2504353 6.2020201,9.0021553 6.0626607,8.7201353 5.8748923,8.4179459 5.6511837,8.298757 5.624412,7.9470577 5.6020412,8.4062106 5.6038748,8.1164894 5.3317572,7.9210195 5.2646446,8.002068 5.2635444,7.7233491 5.5561992,7.8627086 5.3511942,7.6566033 5.307186,7.3668824 5.1619588,7.0661594 5.118684,6.7390315 5.050838,6.5813353 5.1091489,6.2439388 4.8876407,6.6007723 4.8069589,6.9774095 4.860869,6.1379523 4.9866593,6.4144707 5.1516902,6.1320846 4.9272481,6.1650907 4.9184465,6.2043314 5.0258999,5.9659535 4.9866593,5.6278235 4.8902078,5.7569143 4.9474185,5.5038669 4.9807913,4.8272403 4.8047584,4.9471627 4.9111117,4.6831133 5.0071963,3.7380363 4.5436429,4.0981704 4.3558743,4.1007346 4.0309469,4.1663831 3.8772847,4.2426641 4.3588083,4.5081805 3.8288757,4.3387488 3.6323055,4.2962072 3.6066338,4.5419199 3.4122643,4.4355667 3.170219,4.4381338 3.558225,4.4858096 2.9813503,4.834208 2.7594754,4.6992494 2.470488,4.8371419 3.0088555,5.1818731 2.7649782,5.288593 2.7950507,5.4488564 2.3223287,5.2306491 2.3593689,5.6017851 2.0791832,5.4836963 2.3208614,6.0418675 2.4613213,5.8529987 2.9380773,5.9820896 2.7968842,6.2762113 2.8089864,6.5560303 2.7312386,6.7188608 2.4253813,6.1731587 2.7407737,6.1984634 2.4913937,5.7939544 2.4657222,6.0517693 2.2585167,6.2402712 2.2108409,6.2538403 2.7866156,6.507988 2.4250145,6.6326781 2.7429741,6.6818204 2.7521425,6.9601727 2.8166879,7.1358389 3.0073903,7.3349762 2.9681496,6.9157977 3.1969925,7.155276 3.0521302,6.9425696 2.4305138,6.5549304 2.9311076,6.6785202 2.9285405,6.4643468 2.840524,6.2912477 2.9941861,6.2952817 3.1463812,6.0202302 2.8350229,6.9737421 3.1775537,6.6238766 c 0.094618,-0.041441 0.1184556,-0.2750515 0.2886207,0.022004 0.2471796,0.2435122 0.089484,0.4195451 -0.2596486,0.1965701 0.062345,0.211973 0.4668541,0.2875205 0.3905731,0.6186825 0.080682,0.2915546 0.1932696,0.1841011 0.2915546,0.1672313 0.073347,0.2831196 0.1210227,0.074814 0.1246901,-0.059778 0.3527993,0.075547 0.2699171,0.2842199 0.3806713,0.4298138 0.2431455,0.1100206 -0.3483987,-0.7437393 0.06968,-0.2567147 0.4389822,0.3960741 0.1650309,0.562205 -0.2292095,0.49876 0.24938,-0.02017 0.3300618,0.3373966 0.6417868,0.3245607 0.2845866,0.135692 0.4767559,0.655357 -0.013203,0.438616 -0.1697984,-0.153296 -0.7723446,-0.342531 -0.2801858,-0.05134 0.4540183,0.210506 0.8148859,0.335929 1.2527679,0.600346 0.313192,0.220041 0.4485173,0.4796897 0.5673396,0.5306657 C 6.1396749,10.209084 5.6093756,9.9828083 5.999582,9.9134963 5.7538694,9.8687563 5.4773509,9.7447973 5.712795,10.050654 c 0.2002375,0.167232 0.7088994,0.149628 0.8002165,0.168699 -0.077014,0.170165 -0.2101393,0.183367 0.00293,0.196936 -0.2376445,0.126891 0.076281,0.146695 0.098285,0.218942 z M 6.1308735,9.2632703 c -0.1448604,-0.151461 -0.1822674,-0.434581 -0.025672,-0.188135 0.080682,0.03228 0.2567147,0.463187 0.025672,0.188135 z m 1.5842966,1.0015547 c 0.090217,-0.0059 0.00256,0.06858 0,0 z M 5.9034976,8.8877333 c -0.00587,-0.228843 0.052077,0.176033 0,0 z M 5.7458014,8.6761273 c -0.1822674,-0.3520659 0.2292096,0.09902 0,0 z M 3.8380442,7.3558803 c 0.1070867,-0.028605 0.05281,0.1826342 0,0 z m 1.5182843,0.8229541 c 0.066012,-0.2468128 0.073347,0.2068385 0,0 z M 4.2836276,7.4328947 c -0.075547,-0.135692 0.1576963,0.1276239 0,0 z M 5.2041333,7.7277499 C 5.0317677,7.3415776 5.3266229,7.5168771 5.2426405,7.7908284 Z M 3.6169028,6.6693518 C 3.5435557,6.5424614 3.4126312,6.1705918 3.4537055,6.0569038 3.4903791,6.2417384 3.8468459,6.8527195 3.6282716,6.3136185 3.3869597,5.8588667 3.9168923,6.4610462 3.9715359,6.5747341 3.9972076,6.6873218 3.8226413,6.5439283 3.9407301,6.8087112 3.7250897,6.5072548 3.8134729,6.975209 3.6172695,6.6730191 Z m -0.4903251,-0.33813 c 0.02017,-0.2948552 0.112221,0.2017044 0,0 z m 0.2207746,0.076281 c 0.105253,-0.2222416 0.1782334,0.3098914 0,0 z M 2.8119188,6.0040939 c -0.1826342,-0.181534 -0.314659,-0.3483985 0.0088,-0.1125878 0.12469,0.00477 -0.2768852,-0.3803045 0.030072,-0.1224895 0.3227271,0.058678 0.1591631,0.5291991 -0.038507,0.2347105 z m 0.2787188,-0.00733 c 0.1063533,-0.1052531 0.056477,0.1034194 0,0 z m 0.1716321,0.05501 c -0.1613635,-0.3014564 0.1951032,0.1265237 0,0 z M 2.9212058,5.7261088 c -0.5310327,-0.4730886 0.6674584,0.2468128 0.08655,0.088016 z M 4.4424241,6.6099406 C 4.212481,6.4724149 4.3811792,5.6402925 4.4596606,6.209099 4.6833692,6.1368521 4.4471914,6.5032207 4.6136894,6.4995534 4.5880177,6.7305966 4.5128372,6.8138455 4.4424241,6.609574 Z m 0.5625719,0.332629 c 0.022004,-0.2508469 0.047676,0.1716322 0,0 z M 4.907444,6.8457516 c 0.025672,-0.1070867 0.0022,0.1261569 0,0 z M 3.029026,5.5706127 C 2.6879622,5.1000913 4.0203116,6.0466352 3.2476003,5.6898018 3.1669185,5.6685309 3.0697337,5.6611964 3.029026,5.5706127 Z m 1.0837029,0.5743076 c -0.032273,-0.3960742 0.07188,0.066012 0,0 z m 0.8225874,0.5280988 c 0.063445,-0.2255422 0.00477,0.1492613 0,0 z M 3.0814692,5.3909124 c 0.2028046,-0.043275 0.8434913,0.3557333 0.2548811,0.113688 -0.064912,-0.07188 -0.2039049,-0.039241 -0.2548811,-0.113688 z m 1.7405259,0.8676958 c 0.022004,-0.4052425 0.1210227,-0.2420453 7.347e-4,0.058678 z M 3.2321975,5.250086 C 3.3150796,5.1290634 3.0128897,4.7025502 3.2754725,5.0971574 3.3854931,5.1873743 3.604434,5.2482524 3.4148319,5.2863928 3.7137212,5.5504423 3.3414848,5.3579062 3.2325644,5.2497191 Z m 1.5036148,0.8823652 c 0.056844,-0.4620865 0.050243,0.270284 0,0 z M 3.0598318,4.8239396 c 0.063079,-0.027138 0.033006,0.084349 0,0 z M 3.4522386,5.05755 c 0.1008522,-0.211973 0.1863016,0.2361776 0,0 z m 1.1064405,0.6153819 c -7.346e-4,-0.080682 0.020904,0.1184555 0,0 z M 4.4945004,5.5313721 c -0.1532953,-0.3788376 0.1466942,0.2006042 0,0 z M 4.4002495,5.2827255 c -0.025672,-0.156596 0.088017,0.1965701 0,0 z m 0.1532954,-0.24938 C 4.4479251,4.8477774 4.6866698,4.2155257 4.7134414,4.6079325 4.6023206,4.9137898 4.6815351,5.0846885 4.7585502,4.6739449 4.901577,4.3512177 4.7277444,5.3109641 4.5531785,5.0333455 Z M 4.711241,4.0923026 c 0.045842,-0.056477 0.010269,0.067846 0,0 z M 4.4475583,9.2819743 c -0.062345,-0.05501 0.00807,0.03447 0,0 z m 0.5427683,0.274318 c 0.3018232,0.07775 0.300723,-0.04694 0.027506,-0.08435 -0.1466941,-0.136426 -0.6095141,-0.281286 -0.1951032,-0.01687 0.027138,0.07335 0.113688,0.06785 0.1675981,0.100853 z M 3.9194595,8.8448253 c 0.1661311,0.124691 0.6260172,0.351333 0.236911,0.04767 C 4.2876617,8.7399383 3.9051568,8.6585223 4.0316805,8.5565704 3.7089533,8.3585333 3.7767994,8.373203 4.0030751,8.3831045 3.6150691,8.2096388 4.059186,8.2228412 4.0382817,8.1337246 3.8886537,8.104386 3.2952759,7.8696751 3.644408,8.152795 c -0.3549998,-0.1807993 -0.084349,0.06748 -0.1918027,0.041442 -0.3667352,-0.099018 0.3227272,0.2765185 -0.057577,0.183368 0.207939,0.1650309 0.5603716,0.4228454 0.088017,0.1745657 -0.062345,0.089484 0.33813,0.2255417 0.4400824,0.2933877 z m 0.5673395,0.326395 c 0.6894625,0.222241 -0.3384967,-0.271384 0,0 z m 2.9045438,1.7595957 c 0.0088,-0.137159 -0.094251,0.117355 0,0 z m 0.2985226,0.12579 c 0.159163,-0.154029 0.0066,0.245713 0.2640496,-0.03777 0.00256,-0.202804 -0.00733,-0.322727 -0.2955888,-0.07628 -0.079582,0.04401 -0.1147882,0.231043 0.031906,0.113688 z M 2.9505447,8.0790824 c -0.048776,-0.1921693 -0.3425308,-0.1914358 0,0 z m 0.3190598,0.2090391 c -0.1184556,-0.1962034 -0.4224791,-0.1778666 0,0 z m 1.8138729,1.0939718 c 0.1771332,0.157696 0.813419,0.115522 0.2149069,0.01944 -0.088017,-0.130924 -0.5622052,-0.09902 -0.2149069,-0.01944 z m 2.4930668,1.5402877 c 0.2724842,-0.228843 -0.2640495,0.101952 0,0 z m 0.5669728,0.389473 c 0.0018,-0.07335 -0.1173551,0.03191 0,0 z m 0.00111,-0.102686 c 0.3018237,-0.31906 -0.2922875,0.01834 0,0 z M 2.1664645,7.4226262 C 1.9097499,7.0558908 2.006568,6.8908599 1.7586549,6.5912371 1.711713,6.3620276 1.3332419,5.8419969 1.5628182,6.3932001 1.7733243,6.7159272 1.8356693,7.2146873 2.1664645,7.4237264 Z m 5.8824348,3.6842228 c 0.5556037,-0.358667 -0.2273757,-0.156229 0,0 z m 0.4239463,0.166131 c 0.2787187,-0.238378 -0.176033,-0.04988 0,0 z M 2.855927,7.6738398 c 0.079581,-0.1184554 -0.2053718,-0.015403 0,0 z m 5.5285348,3.4858192 c 0.2691842,-0.173466 -0.062346,-0.146694 -0.048776,0.01577 z M 4.7310447,8.8565613 c -0.00917,-0.117355 -0.1422932,0.0099 0,0 z m 0.2255422,0.129824 c -0.07188,-0.145227 -0.1100206,0.02274 0,0 z m 3.8598894,2.2902617 c 0.344731,-0.249379 -0.209039,-0.04767 -0.07225,0.04767 z m -0.132025,-0.06381 c 0.281287,-0.235444 -0.2970552,0.104153 0,0 z m 0.674793,0.449251 c 0.188502,-0.126157 -0.229209,-0.04034 0,0 z M 3.0293928,7.5876571 C 3.2824402,7.6441346 4.0397487,8.2103737 3.593065,7.6268979 3.3642222,7.5590517 3.5013812,6.9997805 3.2677707,7.098799 3.4243667,7.360648 3.3961281,7.4721356 3.0675332,7.3071047 2.6542225,7.1054001 2.8353898,7.4068565 2.9160716,7.4904722 2.806051,7.5161439 3.0616655,7.5858234 3.0297595,7.5880238 Z M 1.8778439,6.6781534 C 1.922952,6.4911184 1.4608658,5.6476272 1.6596363,6.2556743 c 0.071513,0.1272572 0.064179,0.368569 0.2182076,0.4224791 z m 2.1145959,1.3037441 c -0.1305578,-0.1089204 -0.00624,-0.015403 0,0 z m 0.3205266,0.074814 c 0,-0.198037 -0.3542663,-0.080682 0,0 z m 2.7787537,1.7515278 c -0.053177,-0.135692 -0.2090392,-0.0029 0,0 z m 0.1334916,0.09755 c -0.019804,-0.07591 -0.073347,0.01467 0,0 z m 1.1013061,0.6938627 c 0.106353,-0.07812 -0.1320247,-0.01027 0,0 z M 2.4525181,6.825581 c 0.3029234,-0.1173553 -0.3245608,-0.083616 0,0 z m 4.3934893,2.7681183 c -0.00367,-0.196203 -0.1932695,0.04878 0,0 z M 2.3325956,6.5461287 c 0.1943698,-0.066012 -0.1797002,-0.043275 0,0 z m 0.5647725,0.2735846 c -0.00367,-0.064545 -0.059778,0.024571 0,0 z m 6.8902232,4.2247907 c 0.2501137,-0.05061 0.8207537,0.127257 0.9131707,-0.06601 -0.30439,-0.0073 -1.0514297,-0.214541 -1.0866367,0.04914 l 0.06601,0.011 0.107453,0.0066 z M 3.0770684,6.8651884 c 0.0044,-0.1987705 -0.1547623,-0.00733 0,0 z M 1.5917903,5.8346622 c -0.06748,-0.3784709 -0.2567147,-0.057211 0,0 z m 0.3538996,0.089117 c 0.0044,-0.1217561 -0.324194,-0.1092872 0,0 z m 0.2024379,0.099019 c -0.058678,-0.047676 -0.045475,0.059778 0,0 z m 1.2736718,0.8167196 c 0.060144,-0.05501 -0.1419266,-0.040341 0,0 z M 2.0135359,5.7979886 c -0.034473,-0.2860535 -0.4107435,-0.042908 0,0 z M 1.2874,5.3267338 c -0.010269,-0.1320247 -0.07078,0.049876 0,0 z m 0.1081869,-0.081415 c -0.017603,-0.156596 -0.092784,0.019804 0,0 z m 0.5966784,0.355733 C 2.2445792,5.5020332 1.5327459,5.39568 1.9409226,5.5827152 Z m 7.986762,4.9351572 c 0.1613637,-0.148161 -0.205372,-0.04584 0,0 z m 0.9645137,0.49986 c 0.06491,-0.190702 -0.163197,0.02567 0,0 z M 2.0527766,5.2900602 c 0.026772,-0.1852013 -0.2002374,0.036674 0,0 z M 1.2034176,4.7216205 C 1.1586761,4.4594047 1.1652774,4.0009856 1.6009587,4.1557478 1.0189497,4.2716362 2.0043676,4.8796834 1.8796775,4.3992601 2.1246567,4.411362 2.3586339,4.2543996 2.2299098,4.4920441 2.7129002,4.439601 3.0466293,4.0207893 3.5131167,4.0798336 3.879852,4.0314246 4.2729923,3.9954845 4.6646657,3.8487904 4.9862925,3.825686 5.2954504,3.4794879 5.1194174,3.2741161 4.680802,3.2374423 4.2216493,3.2917193 3.7368253,3.3885375 3.199558,3.5000251 2.7118,3.7123648 2.1697652,3.8029485 1.6416663,3.8740951 2.2761184,3.9984184 2.1246571,4.026657 1.8496056,4.1220082 2.4536186,4.1865536 2.0890839,4.2877726 1.8639083,4.2448642 1.6295644,4.1674833 1.7260159,3.9302056 1.2199211,3.996218 0.77507113,4.2059906 1.1751794,4.720887 l 0.029339,3.667e-4 z M 2.4239127,4.1036714 C 2.5423683,3.6665229 3.0594651,4.4630721 2.6182825,4.1623493 2.5658393,4.1227419 2.478923,4.0908359 2.4239127,4.1036714 Z m 0.023104,-0.211973 c 0.1712654,-0.1272571 0.09095,0.071513 0,0 z m 0.2174741,0.00367 c 0.01577,-0.200971 0.4980265,0.1100206 0.079581,0.072247 z M 2.9615468,3.77581 c 0.1089204,-0.1272571 0.031539,0.1125878 0,0 z m 0.076281,-0.051343 C 3.218995,3.5069931 4.0621195,3.5851077 3.4412366,3.7031964 3.2762057,3.5785065 3.1489485,3.7765435 3.0378277,3.7244673 Z m 1.100206,-0.1697987 c -0.027138,-0.5941112 0.5471691,0.2108729 0,0 z m 0.3124585,-0.00184 c 0.113688,-0.299256 0.4437498,-0.1202892 0.053177,-0.060144 0.00844,0.031906 -0.011735,0.1547623 -0.053177,0.060144 z M 1.9299203,5.1396988 c 0.3410638,-0.2090392 -0.3619678,-0.1811673 0,0 z m 0.2523139,0.073347 c 0.1195557,-0.1272571 -0.2567148,-0.051343 0,0 z M 1.4392284,4.6794459 c 0.1943698,-0.1503615 -0.2310433,-0.056844 0,0 z M 11.513448,10.981792 c 0.0055,-0.173832 -0.148894,0.07812 0,0 z m -1.023192,-0.69863 c 0.02934,-0.199871 -0.132025,0.01724 0,0 z m 1.305578,0.766476 c 0.272485,0.0011 0.825888,-0.08435 0.232877,-0.08435 -0.09315,0.01467 -0.542768,0.011 -0.232877,0.08435 z M 2.4048425,5.0839549 c 0.2207747,-0.01467 0.3447312,-0.2431455 -0.042908,-0.2303097 -0.601446,-0.062345 0.5302993,0.2061052 -0.073347,0.1290908 -0.081415,0.05391 0.1151549,0.1158884 0.1199225,0.1008522 z m 0.1943697,0.098285 c -0.023105,-0.1415598 -0.068213,0.075181 0,0 z M 2.8302555,4.5675916 c 0.095351,-0.1188222 -0.1320247,-0.031906 0,0 z M 2.0967849,3.3412286 C 2.4906586,3.2073702 3.029026,3.0570088 3.2153276,3.407241 3.0260922,3.1798651 3.1390466,2.9554231 3.3180135,3.2884187 3.5710609,3.6250818 3.6972178,3.1351234 3.5329204,3.0221689 3.7199554,3.2546791 3.9326619,3.3646997 3.6583439,3.0368386 3.9572332,2.6774379 3.0605653,3.0837805 2.8566604,3.079747 2.7587421,3.1237552 1.844471,3.3129906 2.0975183,3.3412292 Z M 2.3278281,2.8993126 C 2.5522701,2.7298809 3.1045736,3.0001648 2.7503072,2.7306144 2.7154673,2.7001752 1.974662,2.9348859 2.3278281,2.8993126 Z m 0.8185533,0.03374 C 3.4089639,2.9396533 3.0326934,2.5798861 3.3458854,2.7430834 3.2945424,2.5751186 2.9813505,2.5439461 2.8280551,2.4764668 2.7415056,2.6297622 3.0040881,2.9348859 3.1460146,2.9330523 Z M 2.4715884,2.1900465 c 0.09095,-0.1232231 -0.1595299,0.062345 0,0 z M 2.804584,2.2699945 C 3.2281633,2.2138843 2.6967638,2.0877273 2.7191347,2.265594 Z M 2.179667,1.7822368 C 1.8815112,1.3927639 2.7407721,1.8475159 2.437482,1.4400728 2.1822342,1.2372681 1.9376217,1.6689156 2.179667,1.7822368 Z M 6.0061835,3.8432893 C 6.1429758,3.601244 5.4414111,3.5168949 5.9144997,3.7574733 c 0.043275,0.01467 0.033739,0.1026859 0.091684,0.085816 z"
       id="path2"
       style="stroke-width:0.366736;fill:#ffffff" />
  </g>
</svg>
