<?xml version="1.0" encoding="UTF-8" standalone="no"?>
<svg
   xmlns:dc="http://purl.org/dc/elements/1.1/"
   xmlns:cc="http://creativecommons.org/ns#"
   xmlns:rdf="http://www.w3.org/1999/02/22-rdf-syntax-ns#"
   xmlns:svg="http://www.w3.org/2000/svg"
   xmlns="http://www.w3.org/2000/svg"
   xmlns:sodipodi="http://sodipodi.sourceforge.net/DTD/sodipodi-0.dtd"
   xmlns:inkscape="http://www.inkscape.org/namespaces/inkscape"
   width="50"
   height="50"
   viewBox="0 0 13.229166 13.229167"
   version="1.1"
   id="svg8"
   inkscape:version="1.0.1 (3bc2e813f5, 2020-09-07)"
   sodipodi:docname="ico-godot.svg">
  <defs
     id="defs2" />
  <sodipodi:namedview
     id="base"
     pagecolor="#ffffff"
     bordercolor="#666666"
     borderopacity="1.0"
     inkscape:pageopacity="0.0"
     inkscape:pageshadow="2"
     inkscape:zoom="2.8"
     inkscape:cx="-21.291062"
     inkscape:cy="40.468108"
     inkscape:document-units="mm"
     inkscape:current-layer="g847"
     inkscape:document-rotation="0"
     showgrid="false"
     inkscape:window-width="1366"
     inkscape:window-height="745"
     inkscape:window-x="-8"
     inkscape:window-y="-8"
     inkscape:window-maximized="1"
     units="px" />
  <metadata
     id="metadata5">
    <rdf:RDF>
      <cc:Work
         rdf:about="">
        <dc:format>image/svg+xml</dc:format>
        <dc:type
           rdf:resource="http://purl.org/dc/dcmitype/StillImage" />
        <dc:title />
      </cc:Work>
    </rdf:RDF>
  </metadata>
  <g
     inkscape:label="Capa 1"
     inkscape:groupmode="layer"
     id="layer1">
    <g
       id="g847"
       transform="matrix(0.33301187,0,0,0.33301187,-1.7533805,-2.8763398)"
       style="fill:#00ffff">
      <path
         id="path13"
         style="fill:#ffffff;stroke-width:0.108732"
         d="m 21.422008,10.818057 c -1.669909,0.371245 -3.320734,0.887077 -4.869515,1.666622 0.03542,1.367524 0.123375,2.678834 0.302599,4.009824 -0.601463,0.385347 -1.233602,0.715893 -1.795421,1.166946 -0.5708,0.439126 -1.154474,0.858206 -1.671278,1.371781 -1.032553,-0.682958 -2.125186,-1.323475 -3.250999,-1.890079 -1.2135585,1.306091 -2.3473335,2.714872 -3.2742745,4.29225 0.697386,1.128205 1.425166,2.185438 2.2113,3.188927 h 0.02172 v 9.681614 c 0.01771,1.08e-4 0.03521,0.0016 0.05276,0.0031 L 15.084494,34.8801 c 0.310899,0.03001 0.554078,0.281222 0.575715,0.592783 l 0.18311,2.619421 5.17677,0.369326 0.356912,-2.417688 c 0.04624,-0.313518 0.316002,-0.54623 0.63313,-0.54623 h 6.261471 c 0.316964,0 0.585345,0.232712 0.631578,0.54623 l 0.356912,2.417688 5.178321,-0.369326 0.183111,-2.619421 c 0.02181,-0.31155 0.264817,-0.56261 0.575714,-0.592783 l 5.932491,-0.571058 c 0.01754,-0.0016 0.03505,-0.003 0.05276,-0.0031 v -0.772791 h 0.0031 v -8.908823 h 0.02172 c 0.786264,-1.003533 1.513565,-2.060832 2.2113,-3.188927 -0.926626,-1.577487 -2.062268,-2.986268 -3.275828,-4.29225 -1.125487,0.566538 -2.218479,1.207024 -3.250999,1.890079 -0.51667,-0.513575 -1.098106,-0.932644 -1.669711,-1.371781 -0.561623,-0.451097 -1.19511,-0.781643 -1.795419,-1.166946 0.178733,-1.330991 0.26701,-2.6423 0.302598,-4.009824 -1.548889,-0.779545 -3.200288,-1.29541 -4.871067,-1.666622 -0.66705,1.121137 -1.276569,2.334089 -1.807835,3.52101 -0.629994,-0.105274 -1.264146,-0.144529 -1.897838,-0.152075 -0.0044,0 -0.0086,0 -0.01241,0 -0.0039,0 -0.007,0 -0.01086,0 -0.63492,0.0075 -1.267736,0.0468 -1.897838,0.152075 -0.530951,-1.186812 -1.141337,-2.399873 -1.809387,-3.52101 z m -4.695715,14.161631 c 1.975554,0 3.576875,1.60042 3.576875,3.575323 0,1.976207 -1.601321,3.576874 -3.576875,3.576874 -1.974685,0 -3.575323,-1.600667 -3.575323,-3.576874 0,-1.974903 1.600746,-3.575323 3.575323,-3.575323 z m 16.827605,0 c 1.974468,0 3.576874,1.60042 3.576874,3.575323 0,1.976207 -1.602406,3.576874 -3.576874,3.576874 -1.975881,0 -3.576874,-1.600667 -3.576874,-3.576874 0,-1.974903 1.600993,-3.575323 3.576874,-3.575323 z M 25.140095,27.0715 c 0.635942,0 1.151428,0.468712 1.151428,1.045906 v 3.292897 c 0,0.577684 -0.515518,1.047458 -1.151428,1.047458 -0.635908,0 -1.151428,-0.469774 -1.151428,-1.047458 v -3.292897 c 0,-0.577194 0.515529,-1.045906 1.151428,-1.045906 z M 9.0852815,35.586169 c 0.0025,0.573584 0.01086,1.201629 0.01086,1.32678 0,5.636458 7.1496705,8.346906 16.0330885,8.378111 h 0.02172 c 8.883527,-0.03116 16.031537,-2.741653 16.031537,-8.378111 0,-0.127413 0.0083,-0.75287 0.01086,-1.32678 l -5.335047,0.515194 -0.184663,2.633387 c -0.02214,0.317453 -0.273778,0.569994 -0.591232,0.592784 l -6.321989,0.45157 c -0.01541,0.0012 -0.0313,0.0016 -0.04655,0.0016 -0.314182,0 -0.585172,-0.230744 -0.631579,-0.54623 L 27.71917,36.776391 h -5.158148 l -0.363119,2.458035 c -0.0487,0.330904 -0.343382,0.56911 -0.67658,0.544678 l -6.321991,-0.45157 c -0.317454,-0.02279 -0.570646,-0.275331 -0.592783,-0.592784 l -0.183112,-2.633387 z" />
      <path
         style="fill:#ffffff;stroke-width:0.108732"
         inkscape:connector-curvature="0"
         id="path17"
         d="m 17.068946,26.393331 c -1.311201,0 -2.374058,1.063444 -2.374058,2.374275 0,1.310832 1.0629,2.373189 2.374058,2.373189 1.311853,0 2.374275,-1.062379 2.374275,-2.373189 0,-1.310809 -1.062465,-2.374275 -2.374275,-2.374275 z m 16.142378,0 c -1.310875,0 -2.372971,1.063444 -2.372971,2.374275 0,1.310832 1.062172,2.373189 2.372971,2.373189 1.31218,0 2.374058,-1.062379 2.374058,-2.373189 0,-1.310809 -1.061922,-2.374275 -2.374058,-2.374275 z" />
    </g>
  </g>
</svg>
