<?xml version="1.0" encoding="UTF-8" standalone="no"?>
<svg
   xmlns:dc="http://purl.org/dc/elements/1.1/"
   xmlns:cc="http://creativecommons.org/ns#"
   xmlns:rdf="http://www.w3.org/1999/02/22-rdf-syntax-ns#"
   xmlns:svg="http://www.w3.org/2000/svg"
   xmlns="http://www.w3.org/2000/svg"
   xmlns:sodipodi="http://sodipodi.sourceforge.net/DTD/sodipodi-0.dtd"
   xmlns:inkscape="http://www.inkscape.org/namespaces/inkscape"
   width="50"
   height="50"
   viewBox="0 0 13.229166 13.229167"
   version="1.1"
   id="svg8"
   inkscape:version="1.0.1 (3bc2e813f5, 2020-09-07)"
   sodipodi:docname="ico-linkedin.svg">
  <defs
     id="defs2" />
  <sodipodi:namedview
     id="base"
     pagecolor="#ffffff"
     bordercolor="#666666"
     borderopacity="1.0"
     inkscape:pageopacity="0.0"
     inkscape:pageshadow="2"
     inkscape:zoom="3.959798"
     inkscape:cx="10.566573"
     inkscape:cy="56.522836"
     inkscape:document-units="mm"
     inkscape:current-layer="g854"
     inkscape:document-rotation="0"
     showgrid="false"
     inkscape:window-width="1350"
     inkscape:window-height="729"
     inkscape:window-x="0"
     inkscape:window-y="0"
     inkscape:window-maximized="0"
     units="px" />
  <metadata
     id="metadata5">
    <rdf:RDF>
      <cc:Work
         rdf:about="">
        <dc:format>image/svg+xml</dc:format>
        <dc:type
           rdf:resource="http://purl.org/dc/dcmitype/StillImage" />
        <dc:title />
      </cc:Work>
    </rdf:RDF>
  </metadata>
  <g
     inkscape:label="Capa 1"
     inkscape:groupmode="layer"
     id="layer1">
    <g
       id="g854"
       transform="matrix(0.31720202,0,0,0.31720202,0.29622561,0.17833199)"
       style="fill:#000080">
      <path
         d="M 30.085934,2.2778173 H 8.701031 c -4.2174088,0 -7.6374655,3.3217993 -7.6374655,7.4180421 V 30.466377 c 0,4.096243 3.4200567,7.418042 7.6374655,7.418042 h 21.384903 c 4.218936,0 7.637465,-3.321799 7.637465,-7.418042 V 9.6958594 c 0,-4.0962428 -3.418529,-7.4180421 -7.637465,-7.4180421 z M 13.28351,30.466377 H 8.701031 V 14.146684 H 13.28351 Z M 10.992271,12.265469 c -1.4755584,0 -2.6731132,-1.172051 -2.6731132,-2.617085 0,-1.4450346 1.1975548,-2.6170853 2.6731132,-2.6170853 1.475557,0 2.673112,1.1720507 2.673112,2.6170853 0,1.445034 -1.196027,2.617085 -2.673112,2.617085 z m 20.621155,18.200908 h -4.58248 v -8.314142 c 0,-4.996792 -6.109971,-4.618473 -6.109971,0 v 8.314142 h -4.58248 V 14.146684 h 4.58248 v 2.618569 c 2.13238,-3.836611 10.692451,-4.11998 10.692451,3.673415 z"
         id="path2"
         style="fill:#ffffff;stroke-width:1.50539" />
    </g>
  </g>
</svg>
