<?xml version="1.0" encoding="UTF-8" standalone="no"?>
<svg
   xmlns:dc="http://purl.org/dc/elements/1.1/"
   xmlns:cc="http://creativecommons.org/ns#"
   xmlns:rdf="http://www.w3.org/1999/02/22-rdf-syntax-ns#"
   xmlns:svg="http://www.w3.org/2000/svg"
   xmlns="http://www.w3.org/2000/svg"
   xmlns:sodipodi="http://sodipodi.sourceforge.net/DTD/sodipodi-0.dtd"
   xmlns:inkscape="http://www.inkscape.org/namespaces/inkscape"
   width="50"
   height="50"
   viewBox="0 0 13.229166 13.229167"
   version="1.1"
   id="svg8"
   inkscape:version="1.0.1 (3bc2e813f5, 2020-09-07)"
   sodipodi:docname="ico-github.svg">
  <defs
     id="defs2" />
  <sodipodi:namedview
     id="base"
     pagecolor="#ffffff"
     bordercolor="#666666"
     borderopacity="1.0"
     inkscape:pageopacity="0.0"
     inkscape:pageshadow="2"
     inkscape:zoom="5.6"
     inkscape:cx="42.612568"
     inkscape:cy="21.255165"
     inkscape:document-units="mm"
     inkscape:current-layer="layer1"
     inkscape:document-rotation="0"
     showgrid="false"
     inkscape:window-width="1350"
     inkscape:window-height="729"
     inkscape:window-x="0"
     inkscape:window-y="0"
     inkscape:window-maximized="0"
     units="px" />
  <metadata
     id="metadata5">
    <rdf:RDF>
      <cc:Work
         rdf:about="">
        <dc:format>image/svg+xml</dc:format>
        <dc:type
           rdf:resource="http://purl.org/dc/dcmitype/StillImage" />
        <dc:title />
      </cc:Work>
    </rdf:RDF>
  </metadata>
  <g
     inkscape:label="Capa 1"
     inkscape:groupmode="layer"
     id="layer1">
    <path
       d="m 6.6122481,0.11095679 c -3.5662603,0 -6.45866711,2.99410651 -6.45866711,6.68700481 0,2.9545401 1.85040921,5.4610524 4.41719131,6.3454094 0.3223943,0.06186 0.426809,-0.14545 0.426809,-0.321534 V 11.57694 C 3.2009958,11.981505 2.8269322,10.787873 2.8269322,10.787873 2.5330618,10.014967 2.109481,9.8093423 2.109481,9.8093423 1.5233575,9.3941898 2.1541526,9.4031072 2.1541526,9.4031072 2.8027106,9.4499268 3.1439418,10.092425 3.1439418,10.092425 3.7198414,11.114422 4.6547329,10.81908 5.023414,10.648004 5.0810029,10.216135 5.2483912,9.9207931 5.4335403,9.7541739 3.9991772,9.5842082 2.4910794,9.0108022 2.4910794,6.4491232 c 0,-0.7305552 0.2524251,-1.3268133 0.6652427,-1.7949036 -0.066743,-0.1688474 -0.2879487,-0.8492497 0.06298,-1.7698275 0,0 0.542528,-0.179435 1.7766705,0.685418 0.5150802,-0.1482282 1.0672952,-0.2223428 1.6162819,-0.225129 0.5489867,0.00278 1.1017408,0.076902 1.6178971,0.225129 1.2330664,-0.8648526 1.7745184,-0.685418 1.7745184,-0.685418 0.351459,0.9211351 0.130251,1.6015378 0.06351,1.7698275 0.414431,0.4680903 0.664704,1.0649057 0.664704,1.7949036 0,2.568366 -1.5107889,3.133975 -2.9489195,3.2994779 0.2314359,0.2072866 0.4429567,0.6140899 0.4429567,1.2382099 v 1.835026 c 0,0.177759 0.1033387,0.386732 0.4311176,0.320976 2.5646272,-0.885471 4.4128822,-3.3914255 4.4128822,-6.3448514 0,-3.6928983 -2.891867,-6.68700481 -6.4586665,-6.68700481 z"
       id="path2"
       style="stroke-width:0.547653;fill:#ffffff" />
  </g>
</svg>
