<?xml version="1.0" encoding="UTF-8" standalone="no"?>
<svg
   xmlns:dc="http://purl.org/dc/elements/1.1/"
   xmlns:cc="http://creativecommons.org/ns#"
   xmlns:rdf="http://www.w3.org/1999/02/22-rdf-syntax-ns#"
   xmlns:svg="http://www.w3.org/2000/svg"
   xmlns="http://www.w3.org/2000/svg"
   xmlns:sodipodi="http://sodipodi.sourceforge.net/DTD/sodipodi-0.dtd"
   xmlns:inkscape="http://www.inkscape.org/namespaces/inkscape"
   width="50"
   height="50"
   viewBox="0 0 13.229166 13.229167"
   version="1.1"
   id="svg8"
   inkscape:version="1.0.1 (3bc2e813f5, 2020-09-07)"
   sodipodi:docname="ico-illarisoft.svg">
  <defs
     id="defs2" />
  <sodipodi:namedview
     id="base"
     pagecolor="#ffffff"
     bordercolor="#666666"
     borderopacity="1.0"
     inkscape:pageopacity="0.0"
     inkscape:pageshadow="2"
     inkscape:zoom="5.6"
     inkscape:cx="30.456389"
     inkscape:cy="32.083776"
     inkscape:document-units="mm"
     inkscape:current-layer="layer1"
     inkscape:document-rotation="0"
     showgrid="false"
     inkscape:window-width="1366"
     inkscape:window-height="745"
     inkscape:window-x="-8"
     inkscape:window-y="-8"
     inkscape:window-maximized="1"
     units="px" />
  <metadata
     id="metadata5">
    <rdf:RDF>
      <cc:Work
         rdf:about="">
        <dc:format>image/svg+xml</dc:format>
        <dc:type
           rdf:resource="http://purl.org/dc/dcmitype/StillImage" />
        <dc:title />
      </cc:Work>
    </rdf:RDF>
  </metadata>
  <g
     inkscape:label="Capa 1"
     inkscape:groupmode="layer"
     id="layer1">
    <path
       id="rect2846-5-5-8"
       style="fill:none;fill-opacity:1;stroke:#ffffff;stroke-width:0.4;stroke-opacity:1;stroke-miterlimit:4;stroke-dasharray:none"
       d="m 0.88215004,3.8564417 v 2.2012344 2.2012344 2.2012345 2.201234 H 3.0833844 V 10.460145 8.2589105 6.0576761 3.8564417 Z" />
    <circle
       style="fill:none;fill-opacity:1;stroke:#ffffff;stroke-width:0.4;stroke-opacity:1;stroke-miterlimit:4;stroke-dasharray:none"
       id="path2923-6-4-7"
       cx="1.98285"
       cy="1.6552645"
       r="1.1006172" />
    <path
       id="rect1586-1-34-4-5-2-5-3"
       style="fill:#ffffff;stroke:#ffffff;stroke-width:0.4;stroke-miterlimit:4;stroke-dasharray:none"
       d="m 7.4858531,3.8564417 a 2.2012343,2.2012343 0 0 0 -0.022356,2.201e-4 2.2012343,2.2012343 0 0 0 -0.041058,8.585e-4 2.2012343,2.2012343 0 0 0 -0.041488,0.00172 2.2012343,2.2012343 0 0 0 -0.041273,0.00236 2.2012343,2.2012343 0 0 0 -0.041273,0.00301 2.2012343,2.2012343 0 0 0 -0.041273,0.00365 2.2012343,2.2012343 0 0 0 -0.041058,0.00494 2.2012343,2.2012343 0 0 0 -0.041058,0.00537 2.2012343,2.2012343 0 0 0 -0.040843,0.00623 2.2012343,2.2012343 0 0 0 -0.040843,0.00688 2.2012343,2.2012343 0 0 0 -0.040628,0.00774 2.2012343,2.2012343 0 0 0 -0.040413,0.0086 2.2012343,2.2012343 0 0 0 -0.040413,0.00924 2.2012343,2.2012343 0 0 0 -0.040198,0.010104 2.2012343,2.2012343 0 0 0 -0.039983,0.010749 2.2012343,2.2012343 0 0 0 -0.039768,0.011608 2.2012343,2.2012343 0 0 0 -0.039339,0.012253 2.2012343,2.2012343 0 0 0 -0.039339,0.013113 2.2012343,2.2012343 0 0 0 -0.039123,0.013758 2.2012343,2.2012343 0 0 0 -0.038694,0.014403 2.2012343,2.2012343 0 0 0 -0.038479,0.015262 2.2012343,2.2012343 0 0 0 -0.038264,0.015907 2.2012343,2.2012343 0 0 0 -0.037834,0.016767 2.2012343,2.2012343 0 0 0 -0.037619,0.017412 2.2012343,2.2012343 0 0 0 -0.037189,0.018057 2.2012343,2.2012343 0 0 0 -0.036974,0.018702 2.2012343,2.2012343 0 0 0 -0.036544,0.019562 2.2012343,2.2012343 0 0 0 -0.036114,0.020207 2.2012343,2.2012343 0 0 0 -0.035684,0.020637 2.2012343,2.2012343 0 0 0 -0.035469,0.021496 2.2012343,2.2012343 0 0 0 -0.034824,0.022141 2.2012343,2.2012343 0 0 0 -0.034609,0.023001 2.2012343,2.2012343 0 0 0 -0.034179,0.023431 2.2012343,2.2012343 0 0 0 -0.033535,0.024076 2.2012343,2.2012343 0 0 0 -0.033319,0.024721 2.2012343,2.2012343 0 0 0 -0.032675,0.025366 2.2012343,2.2012343 0 0 0 -0.032245,0.025796 2.2012343,2.2012343 0 0 0 -0.031815,0.026656 2.2012343,2.2012343 0 0 0 -0.03117,0.027086 2.2012343,2.2012343 0 0 0 -0.03074,0.027945 2.2012343,2.2012343 0 0 0 -0.030095,0.02816 2.2012343,2.2012343 0 0 0 -0.029665,0.028805 2.2012343,2.2012343 0 0 0 -0.029235,0.02945 2.2012343,2.2012343 0 0 0 -0.02859,0.02988 2.2012343,2.2012343 0 0 0 -0.027945,0.030525 2.2012343,2.2012343 0 0 0 -0.0273,0.030955 2.2012343,2.2012343 0 0 0 -0.026871,0.0316 2.2012343,2.2012343 0 0 0 -0.026226,0.03203 2.2012343,2.2012343 0 0 0 -0.025581,0.03246 2.2012343,2.2012343 0 0 0 -0.025151,0.032889 2.2012343,2.2012343 0 0 0 -0.024291,0.033535 2.2012343,2.2012343 0 0 0 -0.023861,0.033964 2.2012343,2.2012343 0 0 0 -0.023001,0.034179 2.2012343,2.2012343 0 0 0 -0.022571,0.034824 2.2012343,2.2012343 0 0 0 -0.021711,0.035254 2.2012343,2.2012343 0 0 0 -0.021066,0.035469 2.2012343,2.2012343 0 0 0 -0.020422,0.036114 2.2012343,2.2012343 0 0 0 -0.019777,0.036329 2.2012343,2.2012343 0 0 0 -0.019132,0.036759 2.2012343,2.2012343 0 0 0 -0.018487,0.036974 2.2012343,2.2012343 0 0 0 -0.017627,0.037404 2.2012343,2.2012343 0 0 0 -0.016982,0.037834 2.2012343,2.2012343 0 0 0 -0.016337,0.038049 2.2012343,2.2012343 0 0 0 -0.015477,0.038264 2.2012343,2.2012343 0 0 0 -0.014832,0.038694 2.2012343,2.2012343 0 0 0 -0.014188,0.038908 2.2012343,2.2012343 0 0 0 -0.013328,0.039124 2.2012343,2.2012343 0 0 0 -0.012683,0.039553 2.2012343,2.2012343 0 0 0 -0.011823,0.039768 2.2012343,2.2012343 0 0 0 -0.011178,0.039768 2.2012343,2.2012343 0 0 0 -0.010533,0.039983 2.2012343,2.2012343 0 0 0 -0.00946,0.040198 2.2012343,2.2012343 0 0 0 -0.00903,0.040413 2.2012343,2.2012343 0 0 0 -0.00817,0.040628 2.2012343,2.2012343 0 0 0 -0.00731,0.040628 2.2012343,2.2012343 0 0 0 -0.00645,0.040843 2.2012343,2.2012343 0 0 0 -0.0058,0.041058 2.2012343,2.2012343 0 0 0 -0.00516,0.041058 2.2012343,2.2012343 0 0 0 -0.0043,0.041273 2.2012343,2.2012343 0 0 0 -0.00322,0.041273 2.2012343,2.2012343 0 0 0 -0.00301,0.041273 2.2012343,2.2012343 0 0 0 -0.00215,0.041273 2.2012343,2.2012343 0 0 0 -0.00129,0.041273 2.2012343,2.2012343 0 0 0 -2.201e-4,0.041488 v 1.1006172 a 2.2012343,2.2012343 0 0 0 2.201e-4,0.022356 2.2012343,2.2012343 0 0 0 8.585e-4,0.041273 2.2012343,2.2012343 0 0 0 0.00172,0.041488 2.2012343,2.2012343 0 0 0 0.00258,0.041273 2.2012343,2.2012343 0 0 0 0.00279,0.041273 2.2012343,2.2012343 0 0 0 0.00387,0.041273 2.2012343,2.2012343 0 0 0 0.00473,0.041058 2.2012343,2.2012343 0 0 0 0.00559,0.041058 2.2012343,2.2012343 0 0 0 0.00623,0.040843 2.2012343,2.2012343 0 0 0 0.00688,0.040843 2.2012343,2.2012343 0 0 0 0.00774,0.040628 2.2012343,2.2012343 0 0 0 0.0086,0.040413 2.2012343,2.2012343 0 0 0 0.00924,0.040413 2.2012343,2.2012343 0 0 0 0.010104,0.040198 2.2012343,2.2012343 0 0 0 0.010749,0.039983 2.2012343,2.2012343 0 0 0 0.011608,0.039768 2.2012343,2.2012343 0 0 0 0.012253,0.039339 2.2012343,2.2012343 0 0 0 0.013113,0.039338 2.2012343,2.2012343 0 0 0 0.013758,0.039124 2.2012343,2.2012343 0 0 0 0.014403,0.038693 2.2012343,2.2012343 0 0 0 0.015262,0.038479 2.2012343,2.2012343 0 0 0 0.015907,0.038264 2.2012343,2.2012343 0 0 0 0.016767,0.037834 2.2012343,2.2012343 0 0 0 0.017412,0.037619 2.2012343,2.2012343 0 0 0 0.018057,0.037189 2.2012343,2.2012343 0 0 0 0.018702,0.036974 2.2012343,2.2012343 0 0 0 0.019562,0.036544 2.2012343,2.2012343 0 0 0 0.019992,0.036114 2.2012343,2.2012343 0 0 0 0.020852,0.035684 2.2012343,2.2012343 0 0 0 0.021496,0.035469 2.2012343,2.2012343 0 0 0 0.022141,0.034824 2.2012343,2.2012343 0 0 0 0.023001,0.034609 2.2012343,2.2012343 0 0 0 0.023431,0.034179 2.2012343,2.2012343 0 0 0 0.024076,0.033534 2.2012343,2.2012343 0 0 0 0.024721,0.033319 2.2012343,2.2012343 0 0 0 0.025366,0.032675 2.2012343,2.2012343 0 0 0 0.025796,0.032245 2.2012343,2.2012343 0 0 0 0.026656,0.031815 2.2012343,2.2012343 0 0 0 0.027085,0.03117 2.2012343,2.2012343 0 0 0 0.02773,0.03074 2.2012343,2.2012343 0 0 0 0.028375,0.030095 2.2012343,2.2012343 0 0 0 0.028805,0.029665 2.2012343,2.2012343 0 0 0 0.02945,0.029235 2.2012343,2.2012343 0 0 0 0.02988,0.02859 2.2012343,2.2012343 0 0 0 0.030525,0.027945 2.2012343,2.2012343 0 0 0 0.030955,0.027301 2.2012343,2.2012343 0 0 0 0.0316,0.02687 2.2012343,2.2012343 0 0 0 0.03203,0.026226 2.2012343,2.2012343 0 0 0 0.03246,0.025581 2.2012343,2.2012343 0 0 0 0.03289,0.025151 2.2012343,2.2012343 0 0 0 0.033534,0.024291 2.2012343,2.2012343 0 0 0 0.033964,0.023861 2.2012343,2.2012343 0 0 0 0.034179,0.023001 2.2012343,2.2012343 0 0 0 0.034824,0.022571 2.2012343,2.2012343 0 0 0 0.035254,0.021711 2.2012343,2.2012343 0 0 0 0.035469,0.021066 2.2012343,2.2012343 0 0 0 0.036114,0.020422 2.2012343,2.2012343 0 0 0 0.036329,0.019777 2.2012343,2.2012343 0 0 0 0.036759,0.019132 2.2012343,2.2012343 0 0 0 0.036974,0.018487 2.2012343,2.2012343 0 0 0 0.037404,0.017627 2.2012343,2.2012343 0 0 0 0.037834,0.016982 2.2012343,2.2012343 0 0 0 0.038049,0.016337 2.2012343,2.2012343 0 0 0 0.038264,0.015477 2.2012343,2.2012343 0 0 0 0.038694,0.014833 2.2012343,2.2012343 0 0 0 0.038908,0.014188 2.2012343,2.2012343 0 0 0 0.039124,0.013328 2.2012343,2.2012343 0 0 0 0.039553,0.012683 2.2012343,2.2012343 0 0 0 0.039553,0.011823 2.2012343,2.2012343 0 0 0 0.039768,0.011178 2.2012343,2.2012343 0 0 0 0.040198,0.010533 2.2012343,2.2012343 0 0 0 0.040198,0.00946 2.2012343,2.2012343 0 0 0 0.040198,0.00903 2.2012343,2.2012343 0 0 0 0.040843,0.00817 2.2012343,2.2012343 0 0 0 0.040628,0.00731 2.2012343,2.2012343 0 0 0 0.040843,0.00645 2.2012343,2.2012343 0 0 0 0.041058,0.0058 2.2012343,2.2012343 0 0 0 0.041058,0.00516 2.2012343,2.2012343 0 0 0 0.041273,0.0043 2.2012343,2.2012343 0 0 0 0.041273,0.00344 2.2012343,2.2012343 0 0 0 0.041058,0.00279 2.2012343,2.2012343 0 0 0 0.041273,0.00215 2.2012343,2.2012343 0 0 0 0.041273,0.00129 2.2012343,2.2012343 0 0 0 0.041488,2.201e-4 V 9.3595085 H 9.687081 10.23739 A 0.55030857,0.55030857 0 0 1 10.787698,9.9098171 0.55030857,0.55030857 0 0 1 10.23739,10.460126 H 9.6870893 7.4858549 5.2846205 v 2.201234 h 2.2012344 2.2012344 1.1006167 a 2.2012343,2.2012343 0 0 0 0.02236,-2.2e-4 2.2012343,2.2012343 0 0 0 0.04127,-8.58e-4 2.2012343,2.2012343 0 0 0 0.04149,-0.0015 2.2012343,2.2012343 0 0 0 0.04127,-0.0026 2.2012343,2.2012343 0 0 0 0.04127,-0.0028 2.2012343,2.2012343 0 0 0 0.04127,-0.0039 2.2012343,2.2012343 0 0 0 0.04106,-0.0047 2.2012343,2.2012343 0 0 0 0.04106,-0.0056 2.2012343,2.2012343 0 0 0 0.04084,-0.0062 2.2012343,2.2012343 0 0 0 0.04084,-0.0069 2.2012343,2.2012343 0 0 0 0.04063,-0.0077 2.2012343,2.2012343 0 0 0 0.04041,-0.0086 2.2012343,2.2012343 0 0 0 0.04041,-0.0092 2.2012343,2.2012343 0 0 0 0.0402,-0.0101 2.2012343,2.2012343 0 0 0 0.03998,-0.01075 2.2012343,2.2012343 0 0 0 0.03977,-0.01161 2.2012343,2.2012343 0 0 0 0.03934,-0.01225 2.2012343,2.2012343 0 0 0 0.03934,-0.01311 2.2012343,2.2012343 0 0 0 0.03912,-0.01376 2.2012343,2.2012343 0 0 0 0.03869,-0.0144 2.2012343,2.2012343 0 0 0 0.03848,-0.01526 2.2012343,2.2012343 0 0 0 0.03826,-0.01591 2.2012343,2.2012343 0 0 0 0.03783,-0.01677 2.2012343,2.2012343 0 0 0 0.03762,-0.01741 2.2012343,2.2012343 0 0 0 0.03719,-0.01806 2.2012343,2.2012343 0 0 0 0.03697,-0.0187 2.2012343,2.2012343 0 0 0 0.03654,-0.01956 2.2012343,2.2012343 0 0 0 0.03611,-0.01999 2.2012343,2.2012343 0 0 0 0.03569,-0.02085 2.2012343,2.2012343 0 0 0 0.03547,-0.0215 2.2012343,2.2012343 0 0 0 0.03482,-0.02214 2.2012343,2.2012343 0 0 0 0.03461,-0.023 2.2012343,2.2012343 0 0 0 0.03418,-0.02343 2.2012343,2.2012343 0 0 0 0.03354,-0.02408 2.2012343,2.2012343 0 0 0 0.03332,-0.02472 2.2012343,2.2012343 0 0 0 0.03267,-0.02537 2.2012343,2.2012343 0 0 0 0.03224,-0.0258 2.2012343,2.2012343 0 0 0 0.03181,-0.02666 2.2012343,2.2012343 0 0 0 0.03117,-0.02708 2.2012343,2.2012343 0 0 0 0.03074,-0.02773 2.2012343,2.2012343 0 0 0 0.0301,-0.02838 2.2012343,2.2012343 0 0 0 0.02966,-0.02881 2.2012343,2.2012343 0 0 0 0.02923,-0.02945 2.2012343,2.2012343 0 0 0 0.02859,-0.02988 2.2012343,2.2012343 0 0 0 0.02794,-0.03053 2.2012343,2.2012343 0 0 0 0.0273,-0.03096 2.2012343,2.2012343 0 0 0 0.02687,-0.0316 2.2012343,2.2012343 0 0 0 0.02623,-0.03203 2.2012343,2.2012343 0 0 0 0.02558,-0.03246 2.2012343,2.2012343 0 0 0 0.02515,-0.03289 2.2012343,2.2012343 0 0 0 0.02429,-0.03353 2.2012343,2.2012343 0 0 0 0.02386,-0.03397 2.2012343,2.2012343 0 0 0 0.023,-0.03418 2.2012343,2.2012343 0 0 0 0.02257,-0.03482 2.2012343,2.2012343 0 0 0 0.02171,-0.03525 2.2012343,2.2012343 0 0 0 0.02107,-0.03547 2.2012343,2.2012343 0 0 0 0.02042,-0.03612 2.2012343,2.2012343 0 0 0 0.01978,-0.03633 2.2012343,2.2012343 0 0 0 0.01913,-0.03676 2.2012343,2.2012343 0 0 0 0.01849,-0.03697 2.2012343,2.2012343 0 0 0 0.01763,-0.0374 2.2012343,2.2012343 0 0 0 0.01698,-0.03783 2.2012343,2.2012343 0 0 0 0.01634,-0.03805 2.2012343,2.2012343 0 0 0 0.01548,-0.03826 2.2012343,2.2012343 0 0 0 0.01483,-0.03869 2.2012343,2.2012343 0 0 0 0.01419,-0.03891 2.2012343,2.2012343 0 0 0 0.01333,-0.03912 2.2012343,2.2012343 0 0 0 0.01268,-0.03955 2.2012343,2.2012343 0 0 0 0.01182,-0.03955 2.2012343,2.2012343 0 0 0 0.01118,-0.03977 2.2012343,2.2012343 0 0 0 0.01053,-0.0402 2.2012343,2.2012343 0 0 0 0.0095,-0.0402 2.2012343,2.2012343 0 0 0 0.009,-0.04041 2.2012343,2.2012343 0 0 0 0.0082,-0.04063 2.2012343,2.2012343 0 0 0 0.0073,-0.04063 2.2012343,2.2012343 0 0 0 0.0064,-0.04084 2.2012343,2.2012343 0 0 0 0.0058,-0.04106 2.2012343,2.2012343 0 0 0 0.0052,-0.04106 2.2012343,2.2012343 0 0 0 0.0043,-0.04127 2.2012343,2.2012343 0 0 0 0.0032,-0.04127 2.2012343,2.2012343 0 0 0 0.003,-0.04127 2.2012343,2.2012343 0 0 0 0.0022,-0.04127 2.2012343,2.2012343 0 0 0 0.0011,-0.04127 2.2012343,2.2012343 0 0 0 4.29e-4,-0.04149 h -2.2e-4 V 9.359525 a 2.2012343,2.2012343 0 0 0 -2.2e-4,-0.022356 2.2012343,2.2012343 0 0 0 -6.49e-4,-0.041273 2.2012343,2.2012343 0 0 0 -0.0017,-0.041488 2.2012343,2.2012343 0 0 0 -0.0026,-0.041273 2.2012343,2.2012343 0 0 0 -0.0028,-0.041058 2.2012343,2.2012343 0 0 0 -0.0039,-0.041273 2.2012343,2.2012343 0 0 0 -0.0047,-0.041058 2.2012343,2.2012343 0 0 0 -0.0056,-0.041058 2.2012343,2.2012343 0 0 0 -0.0062,-0.040843 2.2012343,2.2012343 0 0 0 -0.0069,-0.040843 2.2012343,2.2012343 0 0 0 -0.0077,-0.040843 2.2012343,2.2012343 0 0 0 -0.0086,-0.040198 2.2012343,2.2012343 0 0 0 -0.0092,-0.040413 2.2012343,2.2012343 0 0 0 -0.0101,-0.040198 2.2012343,2.2012343 0 0 0 -0.01075,-0.039983 2.2012343,2.2012343 0 0 0 -0.01161,-0.039768 2.2012343,2.2012343 0 0 0 -0.01225,-0.039338 2.2012343,2.2012343 0 0 0 -0.01311,-0.039338 2.2012343,2.2012343 0 0 0 -0.01376,-0.039124 2.2012343,2.2012343 0 0 0 -0.0144,-0.038694 2.2012343,2.2012343 0 0 0 -0.01526,-0.038479 2.2012343,2.2012343 0 0 0 -0.01591,-0.038264 2.2012343,2.2012343 0 0 0 -0.01677,-0.037834 2.2012343,2.2012343 0 0 0 -0.01741,-0.037619 2.2012343,2.2012343 0 0 0 -0.01806,-0.037189 2.2012343,2.2012343 0 0 0 -0.0187,-0.036974 2.2012343,2.2012343 0 0 0 -0.01956,-0.036544 2.2012343,2.2012343 0 0 0 -0.01999,-0.036114 2.2012343,2.2012343 0 0 0 -0.02085,-0.035684 2.2012343,2.2012343 0 0 0 -0.0215,-0.035469 2.2012343,2.2012343 0 0 0 -0.02214,-0.034824 2.2012343,2.2012343 0 0 0 -0.023,-0.034609 2.2012343,2.2012343 0 0 0 -0.02343,-0.034179 2.2012343,2.2012343 0 0 0 -0.02408,-0.033534 2.2012343,2.2012343 0 0 0 -0.02472,-0.03332 2.2012343,2.2012343 0 0 0 -0.02537,-0.032675 2.2012343,2.2012343 0 0 0 -0.0258,-0.032245 2.2012343,2.2012343 0 0 0 -0.02666,-0.031815 2.2012343,2.2012343 0 0 0 -0.02709,-0.03117 2.2012343,2.2012343 0 0 0 -0.02773,-0.03074 2.2012343,2.2012343 0 0 0 -0.02838,-0.030095 2.2012343,2.2012343 0 0 0 -0.02881,-0.029665 2.2012343,2.2012343 0 0 0 -0.02945,-0.029235 2.2012343,2.2012343 0 0 0 -0.02966,-0.02859 2.2012343,2.2012343 0 0 0 -0.03053,-0.027946 2.2012343,2.2012343 0 0 0 -0.03096,-0.0273 2.2012343,2.2012343 0 0 0 -0.03181,-0.026871 2.2012343,2.2012343 0 0 0 -0.03203,-0.026226 2.2012343,2.2012343 0 0 0 -0.03224,-0.025581 2.2012343,2.2012343 0 0 0 -0.03311,-0.025151 2.2012343,2.2012343 0 0 0 -0.03353,-0.024291 2.2012343,2.2012343 0 0 0 -0.03396,-0.023861 2.2012343,2.2012343 0 0 0 -0.03418,-0.023001 2.2012343,2.2012343 0 0 0 -0.03482,-0.022571 2.2012343,2.2012343 0 0 0 -0.03525,-0.021712 2.2012343,2.2012343 0 0 0 -0.03547,-0.021066 2.2012343,2.2012343 0 0 0 -0.03611,-0.020422 2.2012343,2.2012343 0 0 0 -0.03633,-0.019777 2.2012343,2.2012343 0 0 0 -0.03676,-0.019132 2.2012343,2.2012343 0 0 0 -0.03697,-0.018487 2.2012343,2.2012343 0 0 0 -0.0374,-0.017627 2.2012343,2.2012343 0 0 0 -0.03762,-0.016982 2.2012343,2.2012343 0 0 0 -0.03826,-0.016337 2.2012343,2.2012343 0 0 0 -0.03826,-0.015477 2.2012343,2.2012343 0 0 0 -0.03869,-0.014833 2.2012343,2.2012343 0 0 0 -0.03869,-0.014188 2.2012343,2.2012343 0 0 0 -0.03912,-0.013328 2.2012343,2.2012343 0 0 0 -0.03955,-0.012683 2.2012343,2.2012343 0 0 0 -0.03955,-0.011823 2.2012343,2.2012343 0 0 0 -0.03977,-0.011178 2.2012343,2.2012343 0 0 0 -0.0402,-0.010533 2.2012343,2.2012343 0 0 0 -0.0402,-0.00946 2.2012343,2.2012343 0 0 0 -0.04041,-0.00903 2.2012343,2.2012343 0 0 0 -0.04063,-0.00817 2.2012343,2.2012343 0 0 0 -0.04063,-0.00731 2.2012343,2.2012343 0 0 0 -0.04084,-0.00645 2.2012343,2.2012343 0 0 0 -0.04106,-0.0058 2.2012343,2.2012343 0 0 0 -0.04106,-0.00516 2.2012343,2.2012343 0 0 0 -0.04127,-0.0043 2.2012343,2.2012343 0 0 0 -0.04127,-0.00344 2.2012343,2.2012343 0 0 0 -0.04127,-0.00279 2.2012343,2.2012343 0 0 0 -0.04127,-0.00215 2.2012343,2.2012343 0 0 0 -0.04127,-0.00129 2.2012343,2.2012343 0 0 0 -0.04149,-4.292e-4 l -2.21e-4,2.201e-4 H 9.6870693 8.0361435 A 0.55030857,0.55030857 0 0 1 7.4858349,6.6079882 0.55030857,0.55030857 0 0 1 8.0361435,6.0576796 h 1.6509258 2.2012347 0.550308 V 3.8564452 H 11.888304 9.6870693 Z" />
  </g>
</svg>
